<svg xmlns="http://www.w3.org/2000/svg" width="1100" height="420" viewBox="0 0 1100 420">
<text x="70.0" y="28.0" font-family="ui-sans-serif,system-ui,-apple-system,Segoe UI,Roboto,Arial" font-size="16" text-anchor="start" font-weight="600">Per-task Δ mean_token_count (group_b - group_a)</text>
<text x="16.0" y="191.0" font-family="ui-sans-serif,system-ui,-apple-system,Segoe UI,Roboto,Arial" font-size="12" text-anchor="start" font-weight="normal">tokens</text>
<line x1="70.0" y1="330.0" x2="1080.0" y2="330.0" stroke="#666" stroke-width="1.2"/>
<line x1="70.0" y1="52.0" x2="70.0" y2="330.0" stroke="#666" stroke-width="1.2"/>
<line x1="66.0" y1="330.0" x2="70.0" y2="330.0" stroke="#666" stroke-width="1.0"/>
<text x="62.0" y="334.0" font-family="ui-sans-serif,system-ui,-apple-system,Segoe UI,Roboto,Arial" font-size="11" text-anchor="end" font-weight="normal">-100.00</text>
<line x1="70.0" y1="330.0" x2="1080.0" y2="330.0" stroke="#eee" stroke-width="1.0"/>
<line x1="66.0" y1="274.4" x2="70.0" y2="274.4" stroke="#666" stroke-width="1.0"/>
<text x="62.0" y="278.4" font-family="ui-sans-serif,system-ui,-apple-system,Segoe UI,Roboto,Arial" font-size="11" text-anchor="end" font-weight="normal">1875.39</text>
<line x1="70.0" y1="274.4" x2="1080.0" y2="274.4" stroke="#eee" stroke-width="1.0"/>
<line x1="66.0" y1="218.8" x2="70.0" y2="218.8" stroke="#666" stroke-width="1.0"/>
<text x="62.0" y="222.8" font-family="ui-sans-serif,system-ui,-apple-system,Segoe UI,Roboto,Arial" font-size="11" text-anchor="end" font-weight="normal">3850.78</text>
<line x1="70.0" y1="218.8" x2="1080.0" y2="218.8" stroke="#eee" stroke-width="1.0"/>
<line x1="66.0" y1="163.2" x2="70.0" y2="163.2" stroke="#666" stroke-width="1.0"/>
<text x="62.0" y="167.2" font-family="ui-sans-serif,system-ui,-apple-system,Segoe UI,Roboto,Arial" font-size="11" text-anchor="end" font-weight="normal">5826.17</text>
<line x1="70.0" y1="163.2" x2="1080.0" y2="163.2" stroke="#eee" stroke-width="1.0"/>
<line x1="66.0" y1="107.6" x2="70.0" y2="107.6" stroke="#666" stroke-width="1.0"/>
<text x="62.0" y="111.6" font-family="ui-sans-serif,system-ui,-apple-system,Segoe UI,Roboto,Arial" font-size="11" text-anchor="end" font-weight="normal">7801.56</text>
<line x1="70.0" y1="107.6" x2="1080.0" y2="107.6" stroke="#eee" stroke-width="1.0"/>
<line x1="66.0" y1="52.0" x2="70.0" y2="52.0" stroke="#666" stroke-width="1.0"/>
<text x="62.0" y="56.0" font-family="ui-sans-serif,system-ui,-apple-system,Segoe UI,Roboto,Arial" font-size="11" text-anchor="end" font-weight="normal">9776.95</text>
<line x1="70.0" y1="52.0" x2="1080.0" y2="52.0" stroke="#eee" stroke-width="1.0"/>
<text x="196.2" y="382.0" font-size="11" font-family="ui-sans-serif,system-ui,-apple-system,Segoe UI,Roboto,Arial" text-anchor="end" transform="rotate(-35 196.2 382.0)">generation</text>
<rect x="101.6" y="52.0" width="174.2" height="278.0" fill="#9467bd" stroke="#cfcfcf"/>
<text x="188.7" y="46.0" font-family="ui-sans-serif,system-ui,-apple-system,Segoe UI,Roboto,Arial" font-size="10" text-anchor="middle" font-weight="normal">+9777</text>
<text x="448.8" y="382.0" font-size="11" font-family="ui-sans-serif,system-ui,-apple-system,Segoe UI,Roboto,Arial" text-anchor="end" transform="rotate(-35 448.8 382.0)">execution</text>
<rect x="354.1" y="271.8" width="174.2" height="58.2" fill="#9467bd" stroke="#cfcfcf"/>
<text x="441.2" y="265.8" font-family="ui-sans-serif,system-ui,-apple-system,Segoe UI,Roboto,Arial" font-size="10" text-anchor="middle" font-weight="normal">+1969</text>
<text x="701.2" y="382.0" font-size="11" font-family="ui-sans-serif,system-ui,-apple-system,Segoe UI,Roboto,Arial" text-anchor="end" transform="rotate(-35 701.2 382.0)">debug</text>
<rect x="606.6" y="227.3" width="174.2" height="102.7" fill="#9467bd" stroke="#cfcfcf"/>
<text x="693.7" y="221.3" font-family="ui-sans-serif,system-ui,-apple-system,Segoe UI,Roboto,Arial" font-size="10" text-anchor="middle" font-weight="normal">+3549</text>
<text x="953.8" y="382.0" font-size="11" font-family="ui-sans-serif,system-ui,-apple-system,Segoe UI,Roboto,Arial" text-anchor="end" transform="rotate(-35 953.8 382.0)">translation</text>
<rect x="859.1" y="317.1" width="174.2" height="12.9" fill="#9467bd" stroke="#cfcfcf"/>
<text x="946.2" y="311.1" font-family="ui-sans-serif,system-ui,-apple-system,Segoe UI,Roboto,Arial" font-size="10" text-anchor="middle" font-weight="normal">+357</text>
<rect x="1056.0" y="20.0" width="10.0" height="10.0" fill="#9467bd" stroke="#bbb"/>
<text x="1052.0" y="29.0" font-family="ui-sans-serif,system-ui,-apple-system,Segoe UI,Roboto,Arial" font-size="11" text-anchor="end" font-weight="normal">Δtokens</text>
</svg>