<svg xmlns="http://www.w3.org/2000/svg" width="1100" height="420" viewBox="0 0 1100 420">
<text x="70.0" y="28.0" font-family="ui-sans-serif,system-ui,-apple-system,Segoe UI,Roboto,Arial" font-size="16" text-anchor="start" font-weight="600">Per-task category deltas: ΔSD and ΔVV (group_b - group_a)</text>
<text x="16.0" y="191.0" font-family="ui-sans-serif,system-ui,-apple-system,Segoe UI,Roboto,Arial" font-size="12" text-anchor="start" font-weight="normal">fraction</text>
<line x1="70.0" y1="330.0" x2="1080.0" y2="330.0" stroke="#666" stroke-width="1.2"/>
<line x1="70.0" y1="52.0" x2="70.0" y2="330.0" stroke="#666" stroke-width="1.2"/>
<line x1="66.0" y1="330.0" x2="70.0" y2="330.0" stroke="#666" stroke-width="1.0"/>
<text x="62.0" y="334.0" font-family="ui-sans-serif,system-ui,-apple-system,Segoe UI,Roboto,Arial" font-size="11" text-anchor="end" font-weight="normal">-0.20</text>
<line x1="70.0" y1="330.0" x2="1080.0" y2="330.0" stroke="#eee" stroke-width="1.0"/>
<line x1="66.0" y1="274.4" x2="70.0" y2="274.4" stroke="#666" stroke-width="1.0"/>
<text x="62.0" y="278.4" font-family="ui-sans-serif,system-ui,-apple-system,Segoe UI,Roboto,Arial" font-size="11" text-anchor="end" font-weight="normal">-0.12</text>
<line x1="70.0" y1="274.4" x2="1080.0" y2="274.4" stroke="#eee" stroke-width="1.0"/>
<line x1="66.0" y1="218.8" x2="70.0" y2="218.8" stroke="#666" stroke-width="1.0"/>
<text x="62.0" y="222.8" font-family="ui-sans-serif,system-ui,-apple-system,Segoe UI,Roboto,Arial" font-size="11" text-anchor="end" font-weight="normal">-0.04</text>
<line x1="70.0" y1="218.8" x2="1080.0" y2="218.8" stroke="#eee" stroke-width="1.0"/>
<line x1="66.0" y1="163.2" x2="70.0" y2="163.2" stroke="#666" stroke-width="1.0"/>
<text x="62.0" y="167.2" font-family="ui-sans-serif,system-ui,-apple-system,Segoe UI,Roboto,Arial" font-size="11" text-anchor="end" font-weight="normal">0.04</text>
<line x1="70.0" y1="163.2" x2="1080.0" y2="163.2" stroke="#eee" stroke-width="1.0"/>
<line x1="66.0" y1="107.6" x2="70.0" y2="107.6" stroke="#666" stroke-width="1.0"/>
<text x="62.0" y="111.6" font-family="ui-sans-serif,system-ui,-apple-system,Segoe UI,Roboto,Arial" font-size="11" text-anchor="end" font-weight="normal">0.12</text>
<line x1="70.0" y1="107.6" x2="1080.0" y2="107.6" stroke="#eee" stroke-width="1.0"/>
<line x1="66.0" y1="52.0" x2="70.0" y2="52.0" stroke="#666" stroke-width="1.0"/>
<text x="62.0" y="56.0" font-family="ui-sans-serif,system-ui,-apple-system,Segoe UI,Roboto,Arial" font-size="11" text-anchor="end" font-weight="normal">0.20</text>
<line x1="70.0" y1="52.0" x2="1080.0" y2="52.0" stroke="#eee" stroke-width="1.0"/>
<text x="196.2" y="382.0" font-size="11" font-family="ui-sans-serif,system-ui,-apple-system,Segoe UI,Roboto,Arial" text-anchor="end" transform="rotate(-35 196.2 382.0)">generation</text>
<rect x="101.6" y="71.2" width="87.1" height="258.8" fill="#b279a2" stroke="#cfcfcf"/>
<text x="145.1" y="65.2" font-family="ui-sans-serif,system-ui,-apple-system,Segoe UI,Roboto,Arial" font-size="10" text-anchor="middle" font-weight="normal">+0.17</text>
<rect x="196.2" y="241.8" width="87.1" height="88.2" fill="#72b7b2" stroke="#cfcfcf"/>
<text x="239.8" y="235.8" font-family="ui-sans-serif,system-ui,-apple-system,Segoe UI,Roboto,Arial" font-size="10" text-anchor="middle" font-weight="normal">-0.07</text>
<text x="448.8" y="382.0" font-size="11" font-family="ui-sans-serif,system-ui,-apple-system,Segoe UI,Roboto,Arial" text-anchor="end" transform="rotate(-35 448.8 382.0)">execution</text>
<rect x="354.1" y="135.5" width="87.1" height="194.5" fill="#b279a2" stroke="#cfcfcf"/>
<text x="397.6" y="129.5" font-family="ui-sans-serif,system-ui,-apple-system,Segoe UI,Roboto,Arial" font-size="10" text-anchor="middle" font-weight="normal">+0.08</text>
<rect x="448.8" y="264.5" width="87.1" height="65.5" fill="#72b7b2" stroke="#cfcfcf"/>
<text x="492.3" y="258.5" font-family="ui-sans-serif,system-ui,-apple-system,Segoe UI,Roboto,Arial" font-size="10" text-anchor="middle" font-weight="normal">-0.11</text>
<text x="701.2" y="382.0" font-size="11" font-family="ui-sans-serif,system-ui,-apple-system,Segoe UI,Roboto,Arial" text-anchor="end" transform="rotate(-35 701.2 382.0)">debug</text>
<rect x="606.6" y="138.2" width="87.1" height="191.8" fill="#b279a2" stroke="#cfcfcf"/>
<text x="650.1" y="132.2" font-family="ui-sans-serif,system-ui,-apple-system,Segoe UI,Roboto,Arial" font-size="10" text-anchor="middle" font-weight="normal">+0.08</text>
<rect x="701.2" y="217.6" width="87.1" height="112.4" fill="#72b7b2" stroke="#cfcfcf"/>
<text x="744.8" y="211.6" font-family="ui-sans-serif,system-ui,-apple-system,Segoe UI,Roboto,Arial" font-size="10" text-anchor="middle" font-weight="normal">-0.04</text>
<text x="953.8" y="382.0" font-size="11" font-family="ui-sans-serif,system-ui,-apple-system,Segoe UI,Roboto,Arial" text-anchor="end" transform="rotate(-35 953.8 382.0)">translation</text>
<rect x="859.1" y="153.2" width="87.1" height="176.8" fill="#b279a2" stroke="#cfcfcf"/>
<text x="902.6" y="147.2" font-family="ui-sans-serif,system-ui,-apple-system,Segoe UI,Roboto,Arial" font-size="10" text-anchor="middle" font-weight="normal">+0.05</text>
<rect x="953.8" y="208.5" width="87.1" height="121.5" fill="#72b7b2" stroke="#cfcfcf"/>
<text x="997.3" y="202.5" font-family="ui-sans-serif,system-ui,-apple-system,Segoe UI,Roboto,Arial" font-size="10" text-anchor="middle" font-weight="normal">-0.03</text>
<rect x="1056.0" y="20.0" width="10.0" height="10.0" fill="#72b7b2" stroke="#bbb"/>
<text x="1052.0" y="29.0" font-family="ui-sans-serif,system-ui,-apple-system,Segoe UI,Roboto,Arial" font-size="11" text-anchor="end" font-weight="normal">ΔVV</text>
<rect x="936.0" y="20.0" width="10.0" height="10.0" fill="#b279a2" stroke="#bbb"/>
<text x="932.0" y="29.0" font-family="ui-sans-serif,system-ui,-apple-system,Segoe UI,Roboto,Arial" font-size="11" text-anchor="end" font-weight="normal">ΔSD</text>
</svg>