<svg xmlns="http://www.w3.org/2000/svg" width="1100" height="420" viewBox="0 0 1100 420">
<text x="70.0" y="28.0" font-family="ui-sans-serif,system-ui,-apple-system,Segoe UI,Roboto,Arial" font-size="16" text-anchor="start" font-weight="600">Judge vs test error rates (segmented subset)</text>
<text x="16.0" y="191.0" font-family="ui-sans-serif,system-ui,-apple-system,Segoe UI,Roboto,Arial" font-size="12" text-anchor="start" font-weight="normal">rate</text>
<line x1="70.0" y1="330.0" x2="1080.0" y2="330.0" stroke="#666" stroke-width="1.2"/>
<line x1="70.0" y1="52.0" x2="70.0" y2="330.0" stroke="#666" stroke-width="1.2"/>
<line x1="66.0" y1="330.0" x2="70.0" y2="330.0" stroke="#666" stroke-width="1.0"/>
<text x="62.0" y="334.0" font-family="ui-sans-serif,system-ui,-apple-system,Segoe UI,Roboto,Arial" font-size="11" text-anchor="end" font-weight="normal">0.00</text>
<line x1="70.0" y1="330.0" x2="1080.0" y2="330.0" stroke="#eee" stroke-width="1.0"/>
<line x1="66.0" y1="274.4" x2="70.0" y2="274.4" stroke="#666" stroke-width="1.0"/>
<text x="62.0" y="278.4" font-family="ui-sans-serif,system-ui,-apple-system,Segoe UI,Roboto,Arial" font-size="11" text-anchor="end" font-weight="normal">0.09</text>
<line x1="70.0" y1="274.4" x2="1080.0" y2="274.4" stroke="#eee" stroke-width="1.0"/>
<line x1="66.0" y1="218.8" x2="70.0" y2="218.8" stroke="#666" stroke-width="1.0"/>
<text x="62.0" y="222.8" font-family="ui-sans-serif,system-ui,-apple-system,Segoe UI,Roboto,Arial" font-size="11" text-anchor="end" font-weight="normal">0.18</text>
<line x1="70.0" y1="218.8" x2="1080.0" y2="218.8" stroke="#eee" stroke-width="1.0"/>
<line x1="66.0" y1="163.2" x2="70.0" y2="163.2" stroke="#666" stroke-width="1.0"/>
<text x="62.0" y="167.2" font-family="ui-sans-serif,system-ui,-apple-system,Segoe UI,Roboto,Arial" font-size="11" text-anchor="end" font-weight="normal">0.27</text>
<line x1="70.0" y1="163.2" x2="1080.0" y2="163.2" stroke="#eee" stroke-width="1.0"/>
<line x1="66.0" y1="107.6" x2="70.0" y2="107.6" stroke="#666" stroke-width="1.0"/>
<text x="62.0" y="111.6" font-family="ui-sans-serif,system-ui,-apple-system,Segoe UI,Roboto,Arial" font-size="11" text-anchor="end" font-weight="normal">0.35</text>
<line x1="70.0" y1="107.6" x2="1080.0" y2="107.6" stroke="#eee" stroke-width="1.0"/>
<line x1="66.0" y1="52.0" x2="70.0" y2="52.0" stroke="#666" stroke-width="1.0"/>
<text x="62.0" y="56.0" font-family="ui-sans-serif,system-ui,-apple-system,Segoe UI,Roboto,Arial" font-size="11" text-anchor="end" font-weight="normal">0.44</text>
<line x1="70.0" y1="52.0" x2="1080.0" y2="52.0" stroke="#eee" stroke-width="1.0"/>
<text x="196.2" y="382.0" font-size="11" font-family="ui-sans-serif,system-ui,-apple-system,Segoe UI,Roboto,Arial" text-anchor="end" transform="rotate(-35 196.2 382.0)">generation</text>
<rect x="101.6" y="229.6" width="87.1" height="100.4" fill="#f58518" stroke="#cfcfcf"/>
<text x="145.1" y="223.6" font-family="ui-sans-serif,system-ui,-apple-system,Segoe UI,Roboto,Arial" font-size="10" text-anchor="middle" font-weight="normal">0.16</text>
<rect x="196.2" y="318.3" width="87.1" height="11.7" fill="#4c78a8" stroke="#cfcfcf"/>
<text x="239.8" y="312.3" font-family="ui-sans-serif,system-ui,-apple-system,Segoe UI,Roboto,Arial" font-size="10" text-anchor="middle" font-weight="normal">0.02</text>
<text x="448.8" y="382.0" font-size="11" font-family="ui-sans-serif,system-ui,-apple-system,Segoe UI,Roboto,Arial" text-anchor="end" transform="rotate(-35 448.8 382.0)">execution</text>
<rect x="354.1" y="128.5" width="87.1" height="201.5" fill="#f58518" stroke="#cfcfcf"/>
<text x="397.6" y="122.5" font-family="ui-sans-serif,system-ui,-apple-system,Segoe UI,Roboto,Arial" font-size="10" text-anchor="middle" font-weight="normal">0.32</text>
<rect x="448.8" y="226.5" width="87.1" height="103.5" fill="#4c78a8" stroke="#cfcfcf"/>
<text x="492.3" y="220.5" font-family="ui-sans-serif,system-ui,-apple-system,Segoe UI,Roboto,Arial" font-size="10" text-anchor="middle" font-weight="normal">0.17</text>
<text x="701.2" y="382.0" font-size="11" font-family="ui-sans-serif,system-ui,-apple-system,Segoe UI,Roboto,Arial" text-anchor="end" transform="rotate(-35 701.2 382.0)">debug</text>
<rect x="606.6" y="274.4" width="87.1" height="55.6" fill="#f58518" stroke="#cfcfcf"/>
<text x="650.1" y="268.4" font-family="ui-sans-serif,system-ui,-apple-system,Segoe UI,Roboto,Arial" font-size="10" text-anchor="middle" font-weight="normal">0.09</text>
<rect x="701.2" y="314.4" width="87.1" height="15.6" fill="#4c78a8" stroke="#cfcfcf"/>
<text x="744.8" y="308.4" font-family="ui-sans-serif,system-ui,-apple-system,Segoe UI,Roboto,Arial" font-size="10" text-anchor="middle" font-weight="normal">0.02</text>
<text x="953.8" y="382.0" font-size="11" font-family="ui-sans-serif,system-ui,-apple-system,Segoe UI,Roboto,Arial" text-anchor="end" transform="rotate(-35 953.8 382.0)">translation</text>
<rect x="859.1" y="52.0" width="87.1" height="278.0" fill="#f58518" stroke="#cfcfcf"/>
<text x="902.6" y="46.0" font-family="ui-sans-serif,system-ui,-apple-system,Segoe UI,Roboto,Arial" font-size="10" text-anchor="middle" font-weight="normal">0.44</text>
<rect x="953.8" y="292.9" width="87.1" height="37.1" fill="#4c78a8" stroke="#cfcfcf"/>
<text x="997.3" y="286.9" font-family="ui-sans-serif,system-ui,-apple-system,Segoe UI,Roboto,Arial" font-size="10" text-anchor="middle" font-weight="normal">0.06</text>
<rect x="1056.0" y="20.0" width="10.0" height="10.0" fill="#4c78a8" stroke="#bbb"/>
<text x="1052.0" y="29.0" font-family="ui-sans-serif,system-ui,-apple-system,Segoe UI,Roboto,Arial" font-size="11" text-anchor="end" font-weight="normal">FN rate among actual-pass</text>
<rect x="936.0" y="20.0" width="10.0" height="10.0" fill="#f58518" stroke="#bbb"/>
<text x="932.0" y="29.0" font-family="ui-sans-serif,system-ui,-apple-system,Segoe UI,Roboto,Arial" font-size="11" text-anchor="end" font-weight="normal">FP rate among predicted-valid</text>
</svg>