<svg xmlns="http://www.w3.org/2000/svg" width="1100" height="420" viewBox="0 0 1100 420">
<text x="70.0" y="28.0" font-family="ui-sans-serif,system-ui,-apple-system,Segoe UI,Roboto,Arial" font-size="16" text-anchor="start" font-weight="600">Token Range: pass vs fail COT</text>
<text x="16.0" y="201.0" font-family="ui-sans-serif,system-ui,-apple-system,Segoe UI,Roboto,Arial" font-size="12" text-anchor="start" font-weight="normal">tokens</text>
<line x1="70.0" y1="350.0" x2="1080.0" y2="350.0" stroke="#666" stroke-width="1.2"/>
<line x1="70.0" y1="52.0" x2="70.0" y2="350.0" stroke="#666" stroke-width="1.2"/>
<line x1="66.0" y1="350.0" x2="70.0" y2="350.0" stroke="#666" stroke-width="1.0"/>
<text x="62.0" y="354.0" font-family="ui-sans-serif,system-ui,-apple-system,Segoe UI,Roboto,Arial" font-size="11" text-anchor="end" font-weight="normal">0.00</text>
<line x1="70.0" y1="350.0" x2="1080.0" y2="350.0" stroke="#eee" stroke-width="1.0"/>
<line x1="66.0" y1="290.4" x2="70.0" y2="290.4" stroke="#666" stroke-width="1.0"/>
<text x="62.0" y="294.4" font-family="ui-sans-serif,system-ui,-apple-system,Segoe UI,Roboto,Arial" font-size="11" text-anchor="end" font-weight="normal">7382.37</text>
<line x1="70.0" y1="290.4" x2="1080.0" y2="290.4" stroke="#eee" stroke-width="1.0"/>
<line x1="66.0" y1="230.8" x2="70.0" y2="230.8" stroke="#666" stroke-width="1.0"/>
<text x="62.0" y="234.8" font-family="ui-sans-serif,system-ui,-apple-system,Segoe UI,Roboto,Arial" font-size="11" text-anchor="end" font-weight="normal">14764.74</text>
<line x1="70.0" y1="230.8" x2="1080.0" y2="230.8" stroke="#eee" stroke-width="1.0"/>
<line x1="66.0" y1="171.2" x2="70.0" y2="171.2" stroke="#666" stroke-width="1.0"/>
<text x="62.0" y="175.2" font-family="ui-sans-serif,system-ui,-apple-system,Segoe UI,Roboto,Arial" font-size="11" text-anchor="end" font-weight="normal">22147.10</text>
<line x1="70.0" y1="171.2" x2="1080.0" y2="171.2" stroke="#eee" stroke-width="1.0"/>
<line x1="66.0" y1="111.6" x2="70.0" y2="111.6" stroke="#666" stroke-width="1.0"/>
<text x="62.0" y="115.6" font-family="ui-sans-serif,system-ui,-apple-system,Segoe UI,Roboto,Arial" font-size="11" text-anchor="end" font-weight="normal">29529.47</text>
<line x1="70.0" y1="111.6" x2="1080.0" y2="111.6" stroke="#eee" stroke-width="1.0"/>
<line x1="66.0" y1="52.0" x2="70.0" y2="52.0" stroke="#666" stroke-width="1.0"/>
<text x="62.0" y="56.0" font-family="ui-sans-serif,system-ui,-apple-system,Segoe UI,Roboto,Arial" font-size="11" text-anchor="end" font-weight="normal">36911.84</text>
<line x1="70.0" y1="52.0" x2="1080.0" y2="52.0" stroke="#eee" stroke-width="1.0"/>
<text x="322.5" y="388.0" font-family="ui-sans-serif,system-ui,-apple-system,Segoe UI,Roboto,Arial" font-size="11" text-anchor="middle" font-weight="normal">Min Tokens</text>
<rect x="133.1" y="349.1" width="174.2" height="0.9" fill="#4c78a8" stroke="#cfcfcf"/>
<text x="220.2" y="343.1" font-family="ui-sans-serif,system-ui,-apple-system,Segoe UI,Roboto,Arial" font-size="10" text-anchor="middle" font-weight="normal">107</text>
<rect x="322.5" y="349.2" width="174.2" height="0.8" fill="#f58518" stroke="#cfcfcf"/>
<text x="409.6" y="343.2" font-family="ui-sans-serif,system-ui,-apple-system,Segoe UI,Roboto,Arial" font-size="10" text-anchor="middle" font-weight="normal">94</text>
<text x="827.5" y="388.0" font-family="ui-sans-serif,system-ui,-apple-system,Segoe UI,Roboto,Arial" font-size="11" text-anchor="middle" font-weight="normal">Max Tokens</text>
<rect x="638.1" y="84.0" width="174.2" height="266.0" fill="#4c78a8" stroke="#cfcfcf"/>
<text x="725.2" y="78.0" font-family="ui-sans-serif,system-ui,-apple-system,Segoe UI,Roboto,Arial" font-size="10" text-anchor="middle" font-weight="normal">32953</text>
<rect x="827.5" y="83.9" width="174.2" height="266.1" fill="#f58518" stroke="#cfcfcf"/>
<text x="914.6" y="77.9" font-family="ui-sans-serif,system-ui,-apple-system,Segoe UI,Roboto,Arial" font-size="10" text-anchor="middle" font-weight="normal">32957</text>
<rect x="1056.0" y="20.0" width="10.0" height="10.0" fill="#f58518" stroke="#bbb"/>
<text x="1052.0" y="29.0" font-family="ui-sans-serif,system-ui,-apple-system,Segoe UI,Roboto,Arial" font-size="11" text-anchor="end" font-weight="normal">fail</text>
<rect x="936.0" y="20.0" width="10.0" height="10.0" fill="#4c78a8" stroke="#bbb"/>
<text x="932.0" y="29.0" font-family="ui-sans-serif,system-ui,-apple-system,Segoe UI,Roboto,Arial" font-size="11" text-anchor="end" font-weight="normal">pass</text>
</svg>